<?xml version="1.0" standalone="no"?>
<!DOCTYPE svg PUBLIC "-//W3C//DTD SVG 20010904//EN"
 "http://www.w3.org/TR/2001/REC-SVG-20010904/DTD/svg10.dtd">
<svg version="1.0" xmlns="http://www.w3.org/2000/svg"
 width="364.000000pt" height="364.000000pt" viewBox="0 0 364.000000 364.000000"
 preserveAspectRatio="xMidYMid meet">

<g transform="translate(0.000000,364.000000) scale(0.100000,-0.100000)"
fill="#000000" stroke="none">
<path d="M0 1820 l0 -1820 1820 0 1820 0 0 1820 0 1820 -1820 0 -1820 0 0
-1820z m1191 350 c108 0 244 -59 340 -147 78 -72 121 -139 155 -240 102 -302
-83 -637 -396 -718 -92 -24 -241 -16 -331 17 -174 64 -312 221 -354 400 -19
82 -19 276 0 368 56 265 238 486 482 585 l58 24 3 -145 3 -144 40 0z m1449
262 c130 -46 216 -109 290 -214 78 -111 100 -193 100 -376 0 -155 -13 -225
-60 -342 -50 -125 -167 -269 -287 -351 -46 -32 -183 -99 -202 -99 -7 0 -11 47
-11 139 l0 139 -42 7 c-165 24 -247 63 -348 165 -119 118 -170 238 -170 397 0
268 187 496 455 554 62 13 213 3 275 -19z"/>
</g>
</svg>
